HIERARCHY
ROOT Hips
{
  OFFSET -265.592 97.5709 -253.238
  CHANNELS 6 Xposition Yposition Zposition Zrotation Xrotation Yrotation
  JOINT ToSpine
  {
    OFFSET -0.0105055 1.38907 -7.13956
    CHANNELS 3 Zrotation Xrotation Yrotation
    JOINT Spine
    {
      OFFSET 0.0105055 10 1
      CHANNELS 3 Zrotation Xrotation Yrotation
      JOINT Spine1
      {
        OFFSET 0 12 1.60637
        CHANNELS 3 Zrotation Xrotation Yrotation
        JOINT Neck
        {
          OFFSET 0 27 2.26658
          CHANNELS 3 Zrotation Xrotation Yrotation
          JOINT Head
          {
            OFFSET 0 9 2.12705
            CHANNELS 3 Zrotation Xrotation Yrotation
            End Site
            {
              OFFSET 0 11 2
            }
          }
        }
        JOINT LeftShoulder
        {
          OFFSET 8 19.6109 2.86452
          CHANNELS 3 Zrotation Xrotation Yrotation
          JOINT LeftArm
          {
            OFFSET 12 1 0.681055
            CHANNELS 3 Zrotation Xrotation Yrotation
            JOINT LeftForeArm
            {
              OFFSET 19 0 -1.52608
              CHANNELS 3 Zrotation Xrotation Yrotation
              JOINT LeftHand
              {
                OFFSET 23 0 0
                CHANNELS 3 Zrotation Xrotation Yrotation
                End Site
                {
                  OFFSET 10 0 0
                }
              }
            }
          }
        }
        JOINT RightShoulder
        {
          OFFSET -8 19.6109 2.86452
          CHANNELS 3 Zrotation Xrotation Yrotation
          JOINT RightArm
          {
            OFFSET -12 1 0.681055
            CHANNELS 3 Zrotation Xrotation Yrotation
            JOINT RightForeArm
            {
              OFFSET -19 0 -1.52608
              CHANNELS 3 Zrotation Xrotation Yrotation
              JOINT RightHand
              {
                OFFSET -23 0 0
                CHANNELS 3 Zrotation Xrotation Yrotation
                End Site
                {
                  OFFSET -10 0 0
                }
              }
            }
          }
        }
      }
    }
  }
  JOINT LeftUpLeg
  {
    OFFSET 9 -7.17245 0
    CHANNELS 3 Zrotation Xrotation Yrotation
    JOINT LeftLeg
    {
      OFFSET 0 -44.1113 0
      CHANNELS 3 Zrotation Xrotation Yrotation
      JOINT LeftFoot
      {
        OFFSET 0 -36.1829 0
        CHANNELS 3 Zrotation Xrotation Yrotation
        JOINT LeftToeBase
        {
          OFFSET 0 -4.84184 13
          CHANNELS 3 Zrotation Xrotation Yrotation
          End Site
          {
            OFFSET 0 1 6
          }
        }
      }
    }
  }
  JOINT RightUpLeg
  {
    OFFSET -9 -7.17245 0
    CHANNELS 3 Zrotation Xrotation Yrotation
    JOINT RightLeg
    {
      OFFSET 0 -44.0551 0
      CHANNELS 3 Zrotation Xrotation Yrotation
      JOINT RightFoot
      {
        OFFSET 0 -36.1469 0
        CHANNELS 3 Zrotation Xrotation Yrotation
        JOINT RightToeBase
        {
          OFFSET 0 -4.92256 13
          CHANNELS 3 Zrotation Xrotation Yrotation
          End Site
          {
            OFFSET 0 1 6
          }
        }
      }
    }
  }
}
MOTION
Frames:	8
Frame Time:	0.0333333
-153.576 76.5158 -155.618 2.2717 10.7608 -17.9559 0 0 0 13.7189 29.2669 -2.97474 -8.80054 -7.7482 1.50239 4.19149 -29.3746 3.37108 -5.43733 1.09254 4.44474 -26.5609 3.75365 -7.93957 -27.345 22.5673 -3.07117 9.39094 -2.61168 -105.404 -8.76958 0.397986 -5.18932 21.9546 6.9545 20.7281 34.9072 21.718 17.1861 -8.96783 2.65986 73.613 4.72086 0.315401 7.64149 60.3081 -41.8216 51.8146 0.109168 72.0508 -13.2062 15.6744 -23.436 3.29839 1.02384 -15.8638 0.397684 -39.2642 -33.2844 -24.8331 -0.0958077 68.5121 17.0368 0.606474 -29.2222 0.105384 4.75331 -18.3124 -4.01382 
-149.874 77.3006 -152.222 0.909978 10.1226 -14.7192 0 0 0 11.3507 28.356 -1.46571 -7.61221 -7.72706 1.9941 7.16976 -27.3764 1.6931 -6.26622 0.679422 3.35194 -22.7041 3.50854 -8.55173 -20.2527 23.6372 -10.2959 7.59642 -2.27018 -106.542 -8.37392 0.381293 -5.20834 21.2217 6.75145 20.6022 38.6727 19.8692 14.2349 -7.55714 1.96967 75.4755 5.14851 0.345598 7.68793 57.8074 -42.405 50.784 -0.0409839 69.6772 -18.1191 11.8174 -20.179 2.11112 0.907319 -15.7058 1.41787 -37.4723 -26.3776 -20.4008 -0.00260033 60.4597 13.6122 -2.26736 -23.1177 -0.337172 5.98923 -24.2874 -7.98399 
-145.72 79.4503 -148.138 -1.35064 9.73847 -10.3741 0 0 0 9.29179 27.5318 -0.624758 -5.29282 -8.85805 1.88588 11.1946 -23.5916 0.222942 -7.51093 0.349081 2.8903 -19.0835 3.28303 -9.25447 -14.6445 23.9521 -18.6992 6.78781 -2.08268 -106.979 -7.90089 0.330626 -4.80009 21.4819 6.64728 20.047 41.5943 17.9073 8.37848 -4.84832 0.896814 79.5451 5.99489 0.409569 7.78782 51.9785 -43.3774 47.8082 -0.0156113 69.0328 -18.4291 17.9949 -17.4123 2.74638 1.18092 -17.7085 0.375391 -33.1609 -17.5104 -13.906 0.0594366 47.8092 8.27673 -6.58345 -9.09006 -0.648061 6.81114 -34.2842 -14.2002 
-140.557 82.3736 -143.07 -4.68598 10.3606 -5.44627 0 0 0 7.01782 24.3252 -0.279305 0.484105 -9.0037 0.80956 16.3321 -18.4062 -0.642021 -9.54703 0.576797 3.82839 -15.4877 3.05061 -10.1232 -12.6012 23.3066 -25.0781 3.78706 -1.1624 -107.039 -8.44215 0.300029 -4.05837 22.0152 6.49805 19.1388 41.6113 17.1137 2.85321 -3.63633 0.361713 84.327 6.9057 0.463502 7.69925 45.8187 -44.5958 42.287 0.0115573 69.0726 -17.8892 23.609 -18.7221 3.93852 0.993238 -15.7037 1.26693 -27.7319 -8.88099 -5.48353 0.304127 34.351 -0.255412 -9.99056 6.37729 0.711663 6.12419 -33.6995 -16.8565 
-134.662 84.8652 -137.701 -7.63339 10.8879 -2.71715 0 0 0 3.88594 20.7579 0.770628 7.96529 -8.56654 0.201233 19.6899 -12.3185 -1.24448 -11.5246 0.0330354 5.14345 -12.6538 2.91992 -11.22 -10.5252 21.4544 -29.6775 3.48332 -1.15359 -108.301 -8.09662 0.296543 -4.20359 21.0054 5.74217 17.2122 41.4722 16.6432 -0.89332 -5.44996 0.0563145 89.4098 9.16944 0.629742 7.76869 39.5192 -43.6952 35.259 -0.0212794 68.4545 -16.9861 23.192 -21.1379 4.38407 0.802821 -15.7823 2.72777 -23.6949 -4.95881 -0.0488856 -0.242392 28.9649 -5.46704 -23.9162 10.2115 1.9359 5.01937 -20.6041 -12.6937 
-128.821 86.9006 -133.093 -8.89414 9.71734 -3.03894 0 0 0 2.81041 19.8848 1.7198 10.5783 -7.3784 0.644565 18.3065 -8.83532 -0.148243 -11.7036 0.135915 6.54219 -10.3637 2.82397 -12.4077 -8.26657 19.0477 -31.2325 6.3218 -2.34488 -110.27 -6.81722 0.263601 -4.41175 19.0617 4.66577 14.552 42.805 16.7485 -2.8359 -2.12722 -0.165059 94.4349 11.3556 0.707065 7.12488 31.9572 -39.4296 29.0485 0.0504595 67.3932 -13.1507 24.6352 -25.088 5.5742 0.879535 -15.6544 1.6056 -21.6247 -6.07984 -2.58462 0.316357 34.3937 -0.566693 -32.0498 5.68061 1.69029 4.11856 -16.1188 -8.70042 
-122.533 88.8849 -128.977 -8.16021 9.29084 -5.78943 0 0 0 4.27522 20.1585 1.33634 8.52874 -6.73253 0.808372 13.9366 -7.31853 4.01187 -11.2557 1.46109 9.73083 -9.6403 2.64692 -11.9716 -7.9607 17.4971 -26.4594 5.66208 -2.29304 -111.977 -6.98055 0.281846 -4.58657 17.7156 4.23856 13.7958 42.7265 18.7468 -3.16084 3.99516 0.580138 98.2488 11.0229 0.60452 6.25879 23.3501 -34.7436 25.5321 -0.160529 64.7912 -8.36455 24.2614 -28.5793 6.25998 0.835085 -13.5659 0.766377 -21.288 -12.1883 -8.40346 -0.155603 44.1139 4.09108 -30.2139 1.60471 0.438068 4.75455 -19.1415 -8.91634 
-115.805 91.091 -124.621 -5.64881 10.3786 -11.5654 0 0 0 5.64074 20.3861 0.928021 5.28163 -7.44474 1.26973 8.0453 -5.90039 9.9922 -9.58391 3.02696 13.9128 -10.9166 2.48529 -10.1142 -10.0341 18.0377 -16.2066 5.52567 -2.51254 -114.378 -6.95453 0.300988 -4.96514 17.1801 4.33277 14.526 39.5923 21.4928 -0.912327 3.25885 0.556519 99.6806 11.1698 0.614769 6.28435 16.5553 -30.0873 29.1644 0.065268 60.0451 -7.53659 19.7278 -27.5557 4.79001 1.28608 -14.98 -2.82579 -21.021 -22.2263 -12.5799 -0.0860258 53.2443 2.08952 -31.7649 -4.4643 -1.30603 4.41953 -17.5583 -9.65401 
